# xmcd CD database file
#
# Track frame offsets:
#	150
#	10837
#	26130
#	51865
#	67634
#	83497
#	100484
#	120897
#	134554
#	156150
#	168942
#
# Disc length: 2492 seconds
#
# Revision: 0
# Processed by: cddbd v1.5.2PL0 Copyright (c) Steve Scherf et al.
# Submitted via: CDex 1.51
#
DISCID=7f09ba0b
DTITLE=Jadea Kelly - Love and Lust
DYEAR=2017
DGENRE=Country
TTITLE0=Make It Easy
TTITLE1=On the Water
TTITLE2=Can't Outrun
TTITLE3=Mercy
TTITLE4=Good Girl
TTITLE5=Love You
TTITLE6=Mariah
TTITLE7=Ocean Floor
TTITLE8=Every Last One
TTITLE9=Paper Thin Heart
TTITLE10=Beauty
EXTD=YEAR: 2017
EXTT0=
EXTT1=
EXTT2=
EXTT3=
EXTT4=
EXTT5=
EXTT6=
EXTT7=
EXTT8=
EXTT9=
EXTT10=
PLAYORDER=
